<svg xmlns="http://www.w3.org/2000/svg" viewBox="0 0 400 400" width="400" height="400"><defs><clipPath id="blob-6-c0"><path d="m314.1 345.5c-14.9 17.9-24.7 26.1-49.6 25.6-24.9-.5-70.9-17.1-100-28.7-29-11.6-56-24-74.4-40.7-18.4-16.6-26-36.9-35.9-59-9.8-22.2-25.9-48.9-23.2-73.8 2.6-24.9 18.3-55.7 39-75.5 20.7-19.7 55.2-34.9 85.1-43.2 29.9-8.3 67.8-14.1 94.1-6.7 26.2 7.4 47.1 34.5 63.3 51 16.3 16.5 27.3 19.9 34.2 48 6.8 28.2 12.4 87.1 7 120.9-5.4 33.8-24.8 64.1-39.6 82.1z"/></clipPath><filter id="blob-6-f1" filterUnits="userSpaceOnUse" x="0" y="0" width="400" height="400" color-interpolation-filters="sRGB"><feTurbulence type="fractalNoise" baseFrequency="0.022" numOctaves="1" seed="451" result="a"/><feDisplacementMap in="SourceGraphic" in2="a" scale="4.5" xChannelSelector="R" yChannelSelector="G" result="b"/><feTurbulence type="fractalNoise" baseFrequency="0.75" numOctaves="2" seed="453" result="e"/><feDisplacementMap in="b" in2="e" scale="4.2" xChannelSelector="R" yChannelSelector="G" result="d"/><feTurbulence type="fractalNoise" baseFrequency="0.05" numOctaves="1" seed="454" result="e2"/><feComposite in="e" in2="e2" operator="arithmetic" k2="0.6" k3="0.4" result="n"/><feComponentTransfer in="n" result="s"><feFuncA type="table" tableValues="0.75 0.75 0.75 0.75 0.75 0.75 0.75 0.75 0.75 0.75 0.75 0.75 0.75 0.71 0.39 0.07 0 0 0 0 0 0 0 0 0 0 0 0 0 0 0 0 0 0 0 0 0 0 0 0"/></feComponentTransfer><feFlood flood-color="#fff6e3"/><feComposite in2="s" operator="in"/><feComposite in2="d" operator="in" result="g"/><feMerge><feMergeNode in="d"/><feMergeNode in="g"/></feMerge></filter></defs><g filter="url(#blob-6-f1)"><g clip-path="url(#blob-6-c0)"><rect x="28" y="38" width="330" height="335" fill="#88c6db"/><g fill="none" stroke-linecap="round" stroke-linejoin="round"><path d="m160 78q14 1 27-4m-115 16q15-3 26-14m14 10q13-1 24-7m109-14l41 18m-209 17q17-5 30-15m88 7q17-8 36-4m50-9q14 5 23 17m-230 18q17-7 31-17m-2 14q22 1 40-11m16-3q17 5 34-1m3 3q15-6 30 0m39-11l39 18m-153 5l41-5m38-5q15 9 31 10m42-19q21 6 33 24m-240 6q22 3 43-3m7 8q20-5 37-19m-87 30q10-4 22-4m112-15q17 15 40 14m15-18q21 3 38 15m-286 30q12-14 18-32m85 11q19 5 36-3m75 7q19-3 35 7m-238 13q-7 24 11 42m123-27l32-7m-8-6q16 11 36 9m13-1q21-7 42-4m-144 16q21 5 40-5m2 7q11-6 22-1m8-1l25-8m-35 7l43 8m-45 11l32-2m58-6q12-3 24 0m14-22l7 34m-304-7q10 18 25 33m12-21q13 11 30 9m127-11q20-6 41-6m13-3l37 2m-28 10l26-5m-265 8q17 16 37 26m96-10q13-6 26-5m-116 15q19 15 43 15m91-25q20 2 37 12m58 19q7-10 5-23m-45 30l33-16m-220 25q11 4 22 5m122-5q14-10 31-9m2 3l29 2m-15 20q23-4 33-25m-92 21l40-9m-78 27l41 6m-30 0q19 0 37 5m0 1q22 7 41-5m6 21q11-6 19-16m-137 19q18 13 40 11m13-3q11 6 24 4" stroke="#9ad0e2" stroke-width="8" opacity="0.46"/><path d="m194 44q16-4 32-2m-47 14q17 0 33-4m-2 3q17-4 34 0m-54 7l30-2m-122 19l32-10m61 4q20-8 41-3m-74 21q20 1 38-5m52-4l31 11m-48-2q14 2 27 8m-190 19l29-15m18 6l35-3m43 14q10-6 22-3m-55 8l31 0m-72 24q14-3 24-12m52 3q19 5 37-2m42-11l39 18m-196 5q21 2 41-6m-1 11l27-1m113-18q22 3 31 24m-283-9q-6 23 9 43m14-17q16-6 32-5m70-9q20-5 40 1m-119 15l31-9m4 7q22-2 43-9m-135 14l8 22m16-24q15 9 31 12m15-10q22 3 43 11m-43-3q19-2 36 8m44-4q11 2 22-2m63-7q11 6 24 7m-250 4l16 26m3-25q9 12 23 15m53-12l25 4m42 7q22 4 42-5m-204 6q6 20 21 35m70-30q21-4 42 2m4-6q17 8 37 6m10-4q14-6 30-5m-154 17q21-5 40 3m80 3q18-7 36-9m49 15l20-13m-254 14l26 20m82-17q13 4 27-2m9 6l26-3m-77 14q16-5 33-2m2 3q12 4 24-1m43-13q17 10 37 10m-243 0q18 13 26 33m37-24l30 1m-7 3q15 3 29 1m12 1q12 4 23 1m13-3q22 0 43-9m-187 13q10 13 26 19m22-11q22 8 45 5m159-3q9-14 13-30m-124 31q20 5 36-6m9 12q11-1 21-8m-162 10q22 8 45 8m-20 4l45 3m7-6q19-1 37 5m85 20q19-14 24-38m-175 39l41 9m45-1l26-9m-50 29l45 0" stroke="#9ad0e2" stroke-width="8" opacity="0.46"/><path d="m114 67q19-4 36-11m68 5q15 3 30 1m1-6q13 3 24 10m-139 14q13-9 28-9m84-9q18 5 34 15m-131 12q18-1 35-6m44-10l24 4m-140 19q17 2 32-8m-102 46q15-13 26-30m133 4l29-4m47-14q13 11 28 18m-247 29q11-16 30-19m185-12q17 0 30 9m-174 14l37-3m-86 25q17-9 35-9m-85 30q-2-16 9-29m13 17q10-12 23-21m8 14q12-1 24-6m186-10q15 5 28 14m-247 10l41-7m9 6q19 3 37-6m62 2q14 2 27-2m-152 22l27-11m101-7q20-1 40 6m53-18q4 16 14 29m-31 6q8-19 22-34m-73 36q17 7 34 3m-232 2l19 17m8-11q17-4 32 3m43 2q13 1 25-5m109-14l32 4m22-14q6 15 3 31m-179 2q22 5 45 1m-66 12q20 3 36-8m-93 18q23 4 45-2m132 1q16 1 28-9m-233 12l20 24m65-12q22 10 45 2m-11-13q16 8 33 6m124 13q5-10 4-22m-228 32q22 7 45 6m49 0l27-3m45 7q14-18 34-30m-228 26q12 12 28 16m-32-2q12 13 29 20m17-16q12 2 23 8m135-2q10-7 22-6m14 23q19-10 22-31m-106 25q15 5 31 1m65 3l13-22m-221 27l24 6m1 0q17 6 34 6m-54 5q17 11 37 12m47-4q23-2 44 5m0 0l29-2m1 4l23-16m-46 19q14 2 24-7m-97 14l29 7m58-1l29-16m-96 19q18-3 35 6m9-4q16 3 33-2" stroke="#9ad0e2" stroke-width="6" opacity="0.46"/><path d="m149 60l24-5m-65 17q15-8 31-11m7 4q20 0 38-8m3 25q19-4 39-1m-9 30q22-1 42 10m-207 24q7-20 28-25m121 5q12-4 24-1m-2 14q20-4 40-2m-100 14l23-10m10 1q20-7 38 2m8 0l46-5m-238 41q5-19 23-26m124 4q13-2 25 1m-83 11q12-7 25-8m91-1q19 4 40 3m2 24q30 3 31-20m-239 41q17-5 34-3m137-13q23-5 43 5m-203 8q21 7 44 6m118 3q12-6 26-3m58-16q7 16 3 33m-189 0l25-5m116 4q13 1 25-6m26 19l3-34m-273 28q22 5 42 14m109-14l40-9m1 11q19 2 35-7m-160 15q12 0 22 6m116-14q19-1 37 3m-244 13q14 7 24 18m128-11q16 1 30-7m50 11q19-8 22-28m-240 28q11 6 23 8m44-13q20 8 41 4m39-2q18-5 36-6m-155 20l26 3m117-10q13 1 24-4m-99 15q14-5 28-2m4-2l24 1m-89 11l27 3m11-1q14 7 29 3m-119 6q10 7 22 9m60-11q22-2 43 2m-110 4q15 0 27 8m133-2l38-22m-74 24q16 7 32-1m8 4q15-9 28-21m-183 27q15 1 26 10m18-10q19 7 38 2m93-1l19-16m-119 27l40 8m77-6q5-11 15-18m-161 25q13 7 28 8m55 23l37-4" stroke="#9ad0e2" stroke-width="6" opacity="0.46"/><path d="m169 51q13-9 28-6m100 36l14 14m23 40q5 14 7 29m6-17q0 13 4 25m-25-16q-2 16 6 31m8-10q-2 17 2 33m-5-18q-4 17 3 33m-21 22q-1-15 2-30m-187 76q17 1 33 9m161 4l12-27m-179 30q10 8 24 6m119 1q8-16 21-28m-220 22q13 14 31 17m12-9l17 6m8-8q11 6 23 5m-23-5q16 10 34 9m101 8q15-8 19-25m-180 23q11 1 21 8m137-7l12-14m-141 21l25 8m-4 2q11 0 20 7m9 4q11 1 21 5" stroke="#53a0c0" stroke-width="7" opacity="0.58"/><path d="m36 180l6-30m283 15q4 13 3 26m2 23q6 15 0 30m17 35l5-18m-12 37q11-15 11-33m-242 32q12 4 22 11m-15-4l20 10m4 6l25 9m127-5q9-4 13-13m-133 23q12 8 27 9m34-13l27 2m-50 11q14 6 31 9m25-8q20 1 30-17m-76 23l19 4m6-5q16 3 33 2m5 3q12-2 18-13" stroke="#53a0c0" stroke-width="7" opacity="0.58"/><path d="m202 42l29-1m94 92q1 9 7 18m8 26l1 23m-293 17l13 26m281 29q7-15 5-30m-258 23q9 17 27 23m-23-9l20 14m198-7q11-8 13-21m-27 40q8-12 19-21m-57 81q15-7 31-4" stroke="#53a0c0" stroke-width="5" opacity="0.58"/><path d="m296 90q4 10 15 14m-34-3q9 11 22 16m11-18l21 18m-8-4l13 16m3 72q3 13 2 26m-282 10l15 31m267-7q5-14 1-28m-36 45q15-11 15-28m-239 32q10 13 25 22m195 16l15-16m4 18l11-18m-119 25q10 5 21 5m35 7q18 0 28-16m-50 17l22 3m40 2l15-19" stroke="#53a0c0" stroke-width="5" opacity="0.58"/><path d="m353 206q3 11 1 22m-18 25l3-22m-4 49q0-15 7-27m-20 45q8-11 11-24m-219 35q8 9 20 10m186 14q5-14 16-24m-172 29l15 6m30-8l17 4m56 6q14-6 21-19m-64 17l19 3m42 10l15-16m-104 11q14-1 26 6" stroke="#2e7ece" stroke-width="6" opacity="0.55"/><path d="m329 131q2 14 8 26m3-8q-3 15 4 28m-1-13q4 10 3 20m-8 49q4-9 1-18m7 45q5-11 2-23m-20 68l10-18m-173 27q11 0 20 5m141 8q9-11 14-24m-192 23q16 1 27 11m106-5q14-8 23-21m-77 23q11 4 24 3m-51 5l30 8m37-2l25-9m-46 19q13-1 26 2m2 5q16-3 27-14" stroke="#2e7ece" stroke-width="6" opacity="0.55"/><path d="m302 107l25 16m-20 5q13 6 22 17m10 17q4 9 5 19m-281 54l13 17m247-15q7 8 5 19m20 1l3-25m-275 25l17 20m-15 10l13 11m242 11q4-15 15-26m-219 29l19 8m124 0l19-7m22 12q9-6 15-16m-154 23l24 6m104-4l17-14m-156 20l16 5m35-6q11 5 22 3m8-3q11-3 22 0m-4 4q10-4 20-5m9 5l14-9m-103 17l25 7m3 3l26 3" stroke="#b170b4" stroke-width="5" opacity="0.36"/><path d="m253 54q16 0 26 13m12 12q7 9 17 14m-275 84q5 12 7 26m297 12q-2-13 3-26m-1 91q9-12 10-27m-40 34l18-14m-234 28q9 3 16 10m3-8q13 10 28 8m12 13l21 4m-24-1q13 7 27 6m36-2q15 0 28 7m10 0l23 0m-85 10l16 4m68 10q15 0 27-10" stroke="#b170b4" stroke-width="5" opacity="0.36"/><path d="m125 64q16-10 35-11m36 11l30-5m-24 3q12 2 23-1m-130 42q23-4 43-13m73-1q11 4 23 2m-185 29l20-23m54 18q20-5 40-5m-80 20q11-9 25-13m4 15l22-7m49-3q17-6 36-4m-174 32l22-28m59 12q20 2 41 0m-129 33l20-35m141 6q13 1 26-2m4-9q18 11 38 11m-120 23q11-5 22-4m65 0q11 0 22 3m-81 8q20-7 41-1m-2-5q21-5 42 1m25-4q21 10 43 10m-238 17q18 8 37 2m18-9l29 5m90-17q8 10 20 13m-66 8l29-5m-48 23l27 5m43-3q16 2 29-7m-188 22q15 3 28-2m3 0q12-9 26-8m3 7l42-3m27 11q18 8 38 2m-160 10q16-1 30 7m3-5q11-6 23-3m122 5q23 6 39-11m-68 10l41 16m-137 13q13-6 27-3m80-3l42-1m-67 14l29-3m-68 13l25 0m7 14q15 4 28-6" stroke="#c2e2ee" stroke-width="8" opacity="0.6"/><path d="m119 62q20-3 38-12m-28 25l42-12m-82 25q13-4 25-12m-33 20q13-2 23-12m44 5q17 3 33-2m-6 6q16-3 31 1m-80 16q22-9 45-2m31 0q22 3 42-4m-202 26q10-15 23-27m100 15q12-7 25-5m39 5l25 3m-184 28q17-17 39-21m73 6q14-7 30-5m-146 26l34-14m119 9q18 2 36-4m-166 23q15 6 31 0m88-16q14-1 26 4m32-8l22 8m-226 5q1 12 20 23m12-7q17 1 32-6m152-3q15 5 30 4m-245 21q21-2 41 4m199-17q21-3 27 16m-253 7l28 4m144-13q22-2 43 5m-211 8q16-1 30 4m-37 3q16 12 34 15m-34-6q13 4 24 11m133-15l39-2m-124 22q22 7 43-2m63 5q16 3 32-1m-50 13q14 2 26-5m-84 16q16 3 31-4m46 1q15 2 31-3m3 3l23-12m-188 18l27 4m119 24l25-4m-91 12q13-2 25 3m18 16q13-8 28-7" stroke="#c2e2ee" stroke-width="8" opacity="0.6"/><path d="m172 68q12-4 24 0m-76 13q12 0 22-7m48 8l38-1m17 7q23-5 41 10m-116 6l26-6m-120 24l41-13m82 0q19 2 38-1m0-8l27 9m-2 12q14 5 29 4m-183 24q13-10 29-8m12-3q22-6 45-4m-144 36q5-13 17-21m20 15q15-15 36-15m53 1q18-6 37-2m-168 38q-1-18 12-32m58 8q11 3 22-1m41 1q12 3 23-3m57 11q13-1 25-6m-215 22q15 5 30 0m19 10q19 10 40 9m18-7l30 2m-84 6q23 2 44 12m63-11l30-14m1 19l44 4m-174 9l23 2m39-3q20 6 41 1m60-10q21-5 37 11m-240 9q12 4 21 12m12-11q13 7 27 6m54-9l30 3m-59 8l24-3m9 4q20 5 38-3m-46 13q12-4 24 0m-120 5q14 3 25 10m13-6q19-4 37 1m39-7q16 8 34 7m-54 3q16-1 30 4m3 0q23 1 43-11m-24 32q22-2 40-13m-135 15q23-4 44 6" stroke="#c2e2ee" stroke-width="6" opacity="0.6"/><path d="m235 58q13 4 27 4m-117 15q21 1 41-5m13 8q18 0 35-6m-118 23q16-8 34-12m-23 9l39-6m-88 28q18-3 34-11m19 18q21-6 43-6m33 11q20-10 42-3m17 5q14-1 28 3m-165 22q22-8 45-4m83-3l27 4m-150 18q16-3 32 1m2 11q23-6 46 3m7-12l25-1m-125 13q17 12 38 14m-4-6q14-6 28-2m15-3q12 0 22 7m-19-4q16 10 35 6m-73 5l31 0m29 9q13 7 28 8m-152 4l21 7m38-10q12 5 25 3m92 6q22 7 45 5m-211 15q18 2 34 10m1-1l43-4m-2 26q17-1 33 3m-2-7q13 4 26 2m-13 12q19 8 41 7" stroke="#c2e2ee" stroke-width="6" opacity="0.6"/><path d="m198 78q10 2 19-1m-77 43l32-6m10 4q12-7 25-5m3-9l20 1m7-2q13 1 22 11m-85 5q12 2 23-1m51 12q16-3 30 2m-210 33q15-7 32-6m111-7l33 0m-143 25l20 7m26-10q16-5 32-3m-93 23q8-3 18-3m97 0l20-3m-93 10l21 11m-48 10l22 11m5-7l25-4m86-4l29-5m-116 14q9 4 19 2m7 3q13 4 27 0m-6 1l17 4m-101 18l17 0m72-7l27-1m-48 44l31 2" stroke="#e8f6fa" stroke-width="7" opacity="0.52"/><path d="m131 101q16 3 30-6m8 9l28-7m-84 18q9 0 16-6m32 22q14 6 30 3m-53 9l25-1m47-4q14 0 27 6m-109 18q12-8 26-8m-11 8q13 2 26 0m-49 15l17-2m74-6q10 4 20 4m-140 33q11 1 22-2m24 45l23-2m12 5q14 7 29 3m-41 0q12 5 25 1m30 42l22 2" stroke="#e8f6fa" stroke-width="7" opacity="0.52"/><path d="m160 89q13 1 24-3m14 5q9 0 18-3m9 5l22 0m-128 12q12-5 25-5m-45 32q16 0 31-7m79-1l31-3m-7-2q14 8 29 7m-136 6q12-7 26-3m43 6l17-2m-137 16q15-1 28-8m-2 8q15-8 31-4m101 0l30-4m-158 19q9-6 19-7m49 3q16 5 32-1m40-7l21 2m-147 18q9-3 18-2m40-2l25-4m-137 21q14-4 28 0m139-4l26 1m-185 22q7 5 16 6m56-12l26 3m67-1q16 3 32-2m-76 14l32 2m-122 31l30 10m23-7l33-5m-56 21l21 2" stroke="#e8f6fa" stroke-width="5" opacity="0.52"/><path d="m244 90q15 4 32 5m-135 10q11 2 22-3m46 1q9 1 17-3m13-5q10 5 21 6m-187 25l23-9m37 11q16 4 32-1m-70 9l17-1m105-9q12 6 25 6m-71 9q15-7 31-8m-135 33q13 1 25-4m2 3l20-3m87 1q13-3 25 2m4-3q16-7 34-2m16-16q14 5 25 16m-70 12q14-4 28-1m-147 14q14-1 27 3m3-4l19 0m11-2q15 4 30 4m-88 8l19 8m42-5l21-6m71 1l24-5m-231 13q16 5 29 16m14-10q9-2 17 0m30 6l24-3m51-12l27 2m-98 18l34 0m-3 0q17-6 34 0m-107 17q17 2 33 0m102-13q16-8 32-4" stroke="#e8f6fa" stroke-width="5" opacity="0.52"/><path d="m137 63l30-7m4 18l25-1m12-9l26 0m-44 22q15 4 30 0m-107 17l25-8m12 6q13-7 26-4m7-6q11-3 22 0m7 4l21-1m-154 22l25-8m95-3l19 1m11 1q10 7 21 9m-159 16q12-1 23-6m11 2l17-2m-1-10q14 2 28-3m8 3l28 2m5 1q12-7 25-4m8 2l28 9m-191 8q9-3 16-9m51 3q12 2 23-3m26 12q16 2 32-3m12-15q14 7 30 10m-219 36q8-13 20-23m16 9l24-7m52-2l29-6m17 3q16 0 31-6m-162 32q11-4 24-3m-2-9l30 6m8-4l26-7m67 3l29-3m-173 29l16-8m4 6l22-2m59-6l22-1m46 2l16-5m3 2l18 2m-223 20l25 6m34-5l20 2m9 0q13 0 26-6m32-9q14 5 29 3m-179 23q11 12 28 10m25-7q13 5 26 4m6-5q11-5 22-4m2-4l19 0m104-2l25-8m-215 27q14-6 28 0m101-4q9 1 16-3m-164 24l20 10m4-8q12-1 22 6m130-23l23 4m3 3l17-8m-190 32q9 4 19 2m1-1l19 0m125 6q10 3 21 1m-182 16l16 6m7-2l28 1m-28 9q11 5 22 4m102-5q13-1 23-9m-101 15q10-1 18 3" stroke="#fff6e3" stroke-width="6" opacity="0.42"/><path d="m227 61l24 0m-92 21l19-3m71-6q13 1 25 9m-43 2q12 1 23 6m-148 27q12-4 24-2m5-7q9-1 17-7m13 13l31-3m-89 31q13-7 27-10m41-2l17-4m83-4q8 6 18 7m-170 14l18 0m3 5l22-3m78-8q11-2 22 3m-89 17q10 0 19 3m9-9q10-3 20 0m40-6l23 2m-155 28l23-2m3-5q11-2 20 3m40-8q16 4 32 2m-160 26q12-3 25 1m68-6q12 5 24 2m48-16l30 7m-6-2q8 4 16 2m-202 16l17 4m88-2l19 2m7-10q10 1 18-3m31 4l22 3m-224 16q10 8 23 10m40-15q12 8 27 10m6-5l24 0m6 5l17-4m6 5l17-3m47-8q16 2 31-4m-170 32q13-7 28-7m2 1q13 8 29 5m-1-13l18 2m-63 21l18 4m12-3q13 1 25-6m-3 0q13 1 25-2m32-3q11 5 23 6m-166 17l23 0m8-5l22 4m9 9l26-5m35-9q13-3 26 0m-96 20l26 1m1-4q14-5 29-3m37 6q8-3 16-2m-111 11q14-3 27 4m24-3q15-6 29-2m-92 6q16 1 31 7m29 1q11 0 21-5m5 0q15 7 31 3m-17 12q16-1 31-9m-55 24l24-3" stroke="#fff6e3" stroke-width="6" opacity="0.42"/></g></g><g fill="none" stroke-linecap="round" stroke-linejoin="round"><path d="m213 358q-28-8-55-22m-120-133q-9-19-6-39m1 5l7-29m7-15l19-27m92-46l43-8m1-1q28-4 54 3m81 76q10 17 10 38m3 32l3 59m-2 19q-5 16-12 32" stroke="#2e5f9e" stroke-width="7" opacity="0.8"/><path d="m298 359q-19 14-43 9m-97-28l-44-24m8 6q-23-12-41-31m-5-5q-12-18-16-39m-2 2q-12-25-19-51m2-52l9-22m64-55q25-14 53-20m134 34l33 33m-5 207l-15 18" stroke="#2e5f9e" stroke-width="7" opacity="0.8"/><path d="m278 62l28 29m40 67q5 22 6 46m-40 141q-17 23-45 24" stroke="#2e5f9e" stroke-width="5" opacity="0.8"/><path d="m249 366l-46-12m-132-257q19-18 43-32m143-16l22 12m75 183l-4 32m-9 19q-3 13-10 26" stroke="#2e5f9e" stroke-width="5" opacity="0.8"/><path d="m264 359q-12 3-25 0m6-1l-27-6m-53-21l-36-15m-6 2q-17-9-31-22m-2-4l-14-21m-37-109l4-21m108-80l28-6m3-6l40 2m-3-6q16 0 30 5m49 44q20 16 34 30m-6-7q8 11 10 25m13 62l2 26m-1 32q-5 18-15 33m-10 24q-10 19-24 34" stroke="#4a86c4" stroke-width="9" opacity="0.5"/><path d="m308 344q-10 13-23 20m5-3q-15 5-33 2m-38-9l-39-18m10 4l-26-8m-87-61q-8-12-13-27m-4-1l-10-30m-2 1q-10-19-13-39m5 7q-4-13 0-27m5-15q11-21 29-35m-6 4q9-13 23-20m-6 0q17-10 36-16m-6 0l36-13m93-13q19 5 32 21m-4-3l31 29m35 50q5 17 4 36m4 2l4 21m-4 22q3 23 0 45m-9 28l-17 25" stroke="#4a86c4" stroke-width="9" opacity="0.5"/><path d="m227 362l-58-18m-90-57q-16-22-27-47m9-135q24-25 55-39m-2 0q27-12 56-18m-13 1q32-9 64-8m54 18l26 24m-3-1q23 22 42 45m10 29l3 38m-1-8l3 30m-1-5q3 28-3 56m0 5q-2 15-8 29m1-5q-12 26-29 46m7-8q-16 29-47 36" stroke="#1d3f7e" stroke-width="4" opacity="0.75"/><path d="m313 347q-11 15-29 23m3-4q-29 8-59-2m-66-24q-29-9-55-26m7 4q-22-13-38-32m-22-47q-13-23-20-47m0-2q-2-15 0-29m0-1q6-33 28-58m148-62q32-4 59 13m68 69q9 17 13 37" stroke="#1d3f7e" stroke-width="4" opacity="0.75"/></g><g fill="none" stroke-linecap="round" stroke-linejoin="round"><path d="m299.5 94.9q4.1 5 5.4 11.4m35.6 154.1q-.3 5.5-3.3 10m-107.7 63.5q-2.5-1.9-5.7-2.4m-73-37.7q-4.7-1.6-9.6-1.4m176.5 8.5q-.1 5.1-2.9 9.3m-105.1-215.6q3.8-4.2 8.9-6.4m12.8 256.6q-2.6-1.8-5.8-1.6m-7.1-288.5l.1 0m116 160.9l.1 0m-270.5 26.5l.1 0m218.8-144.8l.1 0m-236.2 90.9l.1 0m25.9 35.3l.1 0" stroke="#fffaf0" stroke-width="4.4" opacity="0.92"/><path d="m104.6 94.7l8.2-9.4m224.7 56.8q-.1 6.2-3.7 11.4m-9.1 56.8q-.2 3.8 1.4 7.3m-33.7-93.7q4.6.9 8.9 3m-119.7 196.4q-6.7-.9-12.4-4.5m142.5-53.2q-2.8 6.3-.8 12.9m-200.3-178.4q3.7-2.6 6.2-6.4m-63.9 128.7l-4-6.6m272.2 73l-5.2 8.7m-102.4 43.8l-5.9-4.1m-31.2-4.7q-4.6-.1-8.7-2.3m-108.7-176.2l.1 0m85.7-76.5l.1 0" stroke="#fffaf0" stroke-width="3.2" opacity="0.92"/></g></g></svg>
